<svg xmlns="http://www.w3.org/2000/svg" viewBox="0 0 800 600">
  <defs>
    <linearGradient id="bg3" x1="0%" y1="0%" x2="100%" y2="100%">
      <stop offset="0%" stop-color="#F0FDF4"/>
      <stop offset="100%" stop-color="#D1FAE5"/>
    </linearGradient>
    <filter id="soft3" x="-20%" y="-20%" width="140%" height="140%">
      <feDropShadow dx="0" dy="8" stdDeviation="16" flood-color="#065F46" flood-opacity="0.12"/>
    </filter>
  </defs>

  <rect width="800" height="600" fill="url(#bg3)"/>
  <circle cx="120" cy="90" r="120" fill="#10B981" opacity="0.05"/>
  <circle cx="700" cy="520" r="140" fill="#34D399" opacity="0.06"/>

  <text x="64" y="84" font-family="PingFang SC, sans-serif" font-size="32" font-weight="700" fill="#065F46">Wiki Knowledge Base</text>
  <text x="64" y="116" font-family="PingFang SC, sans-serif" font-size="15" fill="#059669">Distill scattered documents into structured, interlinked pages and a knowledge graph</text>

  <g filter="url(#soft3)">
    <rect x="64" y="148" width="672" height="396" rx="20" fill="#FFFFFF"/>
  </g>

  <g transform="translate(104, 232)">
    <rect x="16" y="16" width="120" height="156" rx="10" fill="#ECFDF5" stroke="#A7F3D0" stroke-width="1.5"/>
    <rect x="8" y="8" width="120" height="156" rx="10" fill="#F0FDF4" stroke="#6EE7B7" stroke-width="1.5"/>
    <rect x="0" y="0" width="120" height="156" rx="10" fill="#FFFFFF" stroke="#10B981" stroke-width="1.5"/>
    <g stroke="#9CA3AF" stroke-width="2" stroke-linecap="round">
      <line x1="20" y1="28" x2="100" y2="28"/>
      <line x1="20" y1="44" x2="100" y2="44"/>
      <line x1="20" y1="60" x2="84" y2="60"/>
      <line x1="20" y1="84" x2="100" y2="84"/>
      <line x1="20" y1="100" x2="100" y2="100"/>
      <line x1="20" y1="116" x2="72" y2="116"/>
    </g>
    <text x="64" y="184" font-family="PingFang SC, sans-serif" font-size="13" font-weight="600" fill="#059669" text-anchor="middle">Source Docs</text>
  </g>

  <g transform="translate(258, 300)">
    <path d="M0 12 H56" stroke="#10B981" stroke-width="3" marker-end="url(#arr3)"/>
    <text x="30" y="-2" font-family="PingFang SC, sans-serif" font-size="12.5" font-weight="600" fill="#059669" text-anchor="middle">LLM Distill</text>
  </g>

  <g transform="translate(336, 196)">
    <rect width="180" height="64" rx="12" fill="#FFFFFF" stroke="#10B981" stroke-width="1.5"/>
    <rect x="14" y="14" width="28" height="10" rx="5" fill="#10B981"/>
    <text x="54" y="24" font-family="PingFang SC, sans-serif" font-size="13" font-weight="600" fill="#111827">Overview</text>
    <line x1="14" y1="40" x2="166" y2="40" stroke="#E5E7EB" stroke-width="1.5"/>
    <line x1="14" y1="52" x2="120" y2="52" stroke="#E5E7EB" stroke-width="1.5"/>
  </g>
  <g transform="translate(336, 276)">
    <rect width="180" height="64" rx="12" fill="#FFFFFF" stroke="#34D399" stroke-width="1.5"/>
    <rect x="14" y="14" width="28" height="10" rx="5" fill="#34D399"/>
    <text x="54" y="24" font-family="PingFang SC, sans-serif" font-size="13" font-weight="600" fill="#111827">Architecture</text>
    <line x1="14" y1="40" x2="166" y2="40" stroke="#E5E7EB" stroke-width="1.5"/>
    <line x1="14" y1="52" x2="100" y2="52" stroke="#E5E7EB" stroke-width="1.5"/>
  </g>
  <g transform="translate(336, 356)">
    <rect width="180" height="64" rx="12" fill="#FFFFFF" stroke="#6EE7B7" stroke-width="1.5"/>
    <rect x="14" y="14" width="28" height="10" rx="5" fill="#6EE7B7"/>
    <text x="54" y="24" font-family="PingFang SC, sans-serif" font-size="13" font-weight="600" fill="#111827">FAQ</text>
    <line x1="14" y1="40" x2="166" y2="40" stroke="#E5E7EB" stroke-width="1.5"/>
    <line x1="14" y1="52" x2="130" y2="52" stroke="#E5E7EB" stroke-width="1.5"/>
  </g>
  <g stroke="#10B981" stroke-width="1.5" stroke-dasharray="4,3">
    <path d="M426 260 V276" fill="none"/>
    <path d="M426 340 V356" fill="none"/>
  </g>

  <g transform="translate(560, 196)">
    <rect width="148" height="224" rx="14" fill="#ECFDF5" stroke="#6EE7B7" stroke-width="1.5"/>
    <text x="74" y="30" font-family="PingFang SC, sans-serif" font-size="14" font-weight="700" fill="#065F46" text-anchor="middle">Graph</text>
    <g stroke="#10B981" stroke-width="2">
      <line x1="40" y1="80" x2="100" y2="70"/>
      <line x1="40" y1="80" x2="62" y2="140"/>
      <line x1="100" y1="70" x2="110" y2="150"/>
      <line x1="62" y1="140" x2="110" y2="150"/>
      <line x1="62" y1="140" x2="40" y2="190"/>
      <line x1="110" y1="150" x2="100" y2="196"/>
    </g>
    <g fill="#10B981">
      <circle cx="40" cy="80" r="10"/>
      <circle cx="100" cy="70" r="10"/>
      <circle cx="62" cy="140" r="11"/>
      <circle cx="110" cy="150" r="10"/>
      <circle cx="40" cy="190" r="8"/>
      <circle cx="100" cy="196" r="8"/>
    </g>
    <g fill="#A7F3D0">
      <circle cx="40" cy="80" r="4"/>
      <circle cx="100" cy="70" r="4"/>
      <circle cx="62" cy="140" r="4"/>
      <circle cx="110" cy="150" r="4"/>
    </g>
  </g>

  <g transform="translate(104, 470)" font-family="PingFang SC, sans-serif" font-size="12.5" fill="#065F46" text-anchor="middle">
    <rect x="0" y="0" width="120" height="30" rx="15" fill="#ECFDF5"/><text x="60" y="20">Structured</text>
    <rect x="134" y="0" width="120" height="30" rx="15" fill="#ECFDF5"/><text x="194" y="20">Auto-linked</text>
    <rect x="268" y="0" width="120" height="30" rx="15" fill="#ECFDF5"/><text x="328" y="20">Graph</text>
    <rect x="402" y="0" width="120" height="30" rx="15" fill="#ECFDF5"/><text x="462" y="20">Auto-sync</text>
  </g>

  <defs>
    <marker id="arr3" markerWidth="9" markerHeight="9" refX="8" refY="3" orient="auto">
      <polygon points="0 0, 9 3, 0 6" fill="#10B981"/>
    </marker>
  </defs>
</svg>
